<?xml version="1.0" encoding="iso-8859-1"?>
<!-- Generator: Adobe Illustrator 19.0.0, SVG Export Plug-In . SVG Version: 6.00 Build 0)  -->
<svg version="1.1" id="Layer_1" xmlns="http://www.w3.org/2000/svg" xmlns:xlink="http://www.w3.org/1999/xlink" x="0px" y="0px"
	 viewBox="0 0 512.002 512.002" style="enable-background:new 0 0 512.002 512.002;" xml:space="preserve">
<polygon style="fill:#B7D9DD;" points="423.992,8.172 423.992,90.355 439.097,111.756 439.097,288.683 467.15,288.683 
	467.15,111.756 482.255,90.355 482.255,8.172 "/>
<path style="fill:#367596;" d="M189.395,37.002c-28.277,0-51.199,22.922-51.199,51.199l51.202,32.681L240.595,88.2
	C240.594,59.924,217.672,37.002,189.395,37.002z"/>
<path style="fill:#940044;" d="M266.59,185.411l-77.17,288.735c1.689-0.61,109.851-40.023,109.851-137.216V185.411H266.59z"/>
<path style="fill:#C20035;" d="M189.398,474.157L167.61,185.411h98.979V336.93C266.59,433.928,190.901,473.385,189.398,474.157z"/>
<path style="fill:#FF0F47;" d="M189.398,185.412h-77.192H79.525v151.519c0,97.193,108.163,136.606,109.851,137.216
	C189.398,474.158,189.398,185.412,189.398,185.412z"/>
<path style="fill:#111449;" d="M251.371,88.196h-18.432v145.103h18.432c26.45,0,47.899-21.439,47.899-47.888v-49.315
	C299.271,109.646,277.821,88.196,251.371,88.196z"/>
<path style="fill:#F3A933;" d="M497.039,256.002H453.12l-0.014,247.83c24.304,0,43.945-19.696,43.938-43.952L497.039,256.002z"/>
<path style="fill:#FFBE35;" d="M475.254,256.001h-66.052l0.014,203.885c-0.041,24.262,19.668,43.932,43.89,43.945
	c12.256,0,22.154-19.696,22.151-43.952L475.254,256.001z"/>
<path style="fill:#27467A;" d="M232.939,88.197h-87.084h-18.443c-26.45,0-47.888,21.45-47.888,47.899v49.315
	c0,26.45,21.439,47.888,47.888,47.888h29.119c15.24,0,28.182,9.826,32.866,23.487c4.673-13.661,17.626-23.487,32.866-23.487h10.676
	c18.585,0,33.65-21.439,33.65-47.888v-49.315C266.59,109.646,251.524,88.197,232.939,88.197z"/>
<path d="M375.265,226.752c-2.207-1.524-5.023-1.872-7.533-0.922l-60.294,22.782v-55.03h63.182c3.024,0,5.801-1.67,7.217-4.341
	c1.417-2.672,1.243-5.908-0.453-8.411l-37.265-55.007V86.32c0-4.513-3.658-8.17-8.17-8.17c-4.512,0-8.17,3.657-8.17,8.17v42.008
	c0,1.634,0.49,3.23,1.405,4.582l30.031,44.33h-47.778v-41.148c0-30.914-25.149-56.064-56.063-56.064h-3.185
	c-2.08-15.038-9.801-28.298-20.966-37.551l20.137-29.723c2.531-3.737,1.553-8.816-2.182-11.347
	c-3.736-2.531-8.815-1.553-11.347,2.181l-20.52,30.29c-7.322-3.235-15.408-5.047-23.914-5.047c-0.001,0-0.001,0-0.002,0
	c-8.379,0-16.485,1.741-23.93,5.021L144.962,3.589c-2.532-3.734-7.612-4.711-11.347-2.181c-3.735,2.531-4.713,7.61-2.182,11.347
	l20.122,29.7c-1.427,1.185-2.811,2.437-4.138,3.765c-9.263,9.263-15.077,21.051-16.823,33.809h-3.175
	c-30.913,0-56.063,25.15-56.063,56.064v41.148H23.575l30.032-44.33c0.916-1.352,1.406-2.948,1.406-4.582V86.32
	c0-4.513-3.658-8.17-8.17-8.17s-8.17,3.657-8.17,8.17v39.502L1.408,180.829c-1.696,2.503-1.87,5.739-0.453,8.411
	c1.417,2.671,4.194,4.341,7.218,4.341h63.182v55.03L11.06,225.829c-2.511-0.95-5.326-0.605-7.533,0.922
	c-2.208,1.526-3.526,4.039-3.526,6.722v34.791c0,4.513,3.658,8.17,8.17,8.17s8.17-3.657,8.17-8.17v-22.969l55.012,20.785v35.321
	H8.171c-2.522,0-4.902,1.163-6.449,3.155c-1.548,1.99-2.089,4.584-1.47,7.027l38.42,151.261v40.986c0,4.513,3.658,8.17,8.17,8.17
	s8.17-3.657,8.17-8.17v-42.009c0-0.679-0.085-1.354-0.252-2.012L18.676,317.741h52.677v19.186
	c0,42.614,20.053,81.246,57.989,111.717c28.216,22.663,56.127,32.784,57.303,33.204c0.889,0.318,1.819,0.477,2.75,0.477
	c0.93,0,1.861-0.159,2.75-0.477c1.174-0.421,29.087-10.542,57.303-33.204c37.937-30.472,57.99-69.104,57.99-111.717v-19.186h52.677
	l-36.085,142.07c-0.167,0.657-0.252,1.333-0.252,2.012v42.008c0,4.513,3.658,8.17,8.17,8.17c4.512,0,8.17-3.657,8.17-8.17v-40.987
	l38.421-151.261c0.621-2.443,0.078-5.037-1.47-7.027c-1.548-1.99-3.928-3.155-6.449-3.155h-63.182v-35.321l55.012-20.785v22.969
	c0,4.513,3.658,8.17,8.17,8.17s8.17-3.657,8.17-8.17v-34.79C378.789,230.79,377.472,228.277,375.265,226.752z M87.694,136.093
	c0-21.903,17.819-39.724,39.722-39.724h21.674c4.512,0,8.17-3.657,8.17-8.17s-3.658-8.17-8.17-8.17h-1.948
	c1.602-8.38,5.66-16.089,11.827-22.256c8.127-8.127,18.932-12.602,30.426-12.602c20.932,0,38.412,15.028,42.241,34.857h-49.866
	c-4.512,0-8.17,3.657-8.17,8.17s3.658,8.17,8.17,8.17h69.603c21.904,0,39.722,17.82,39.722,39.724v49.319
	c0,21.903-17.819,39.722-39.722,39.722h-29.111c-12.941,0-24.876,5.805-32.867,15.32c-7.993-9.513-19.927-15.32-32.867-15.32
	h-29.112c-21.903,0-39.722-17.819-39.722-39.722L87.694,136.093L87.694,136.093z M291.096,336.927
	c0,37.881-17.332,71.082-51.514,98.681c-21.195,17.113-42.717,26.721-50.188,29.774c-7.477-3.057-28.997-12.665-50.188-29.774
	c-34.182-27.599-51.514-60.799-51.514-98.681V224.932c10.159,10.211,24.214,16.542,39.722,16.542h29.112
	c10.945,0,20.709,6.716,24.697,16.82v180.23c0,4.513,3.658,8.17,8.17,8.17s8.17-3.657,8.17-8.17v-180.23
	c3.989-10.104,13.752-16.82,24.697-16.82h29.111c15.508,0,29.563-6.331,39.722-16.542v111.995H291.096z"/>
<path d="M453.12,280.512c-4.512,0-8.17,3.657-8.17,8.17v171.296c0,4.513,3.658,8.17,8.17,8.17c4.512,0,8.17-3.657,8.17-8.17V288.682
	C461.29,284.17,457.632,280.512,453.12,280.512z"/>
<path d="M512.001,256.001c0-4.513-3.658-8.17-8.17-8.17H475.32V114.348l13.61-19.281c0.973-1.379,1.495-3.024,1.495-4.711V8.172
	c0-4.513-3.658-8.17-8.17-8.17h-58.263c-4.512,0-8.17,3.657-8.17,8.17v82.184c0,1.687,0.522,3.333,1.495,4.711l13.61,19.281v133.484
	h-28.517c-4.512,0-8.17,3.657-8.17,8.17c0,4.043,2.938,7.39,6.793,8.046l0.013,195.826c-0.024,13.895,5.376,26.971,15.202,36.819
	c9.843,9.865,22.931,15.302,36.859,15.31c13.933,0,27.026-5.424,36.866-15.275c9.833-9.843,15.247-22.931,15.242-36.847
	l-0.005-195.832C509.063,263.392,512.001,260.044,512.001,256.001z M445.771,107.044l-13.609-19.281V16.342h41.923v71.422
	l-13.61,19.281c-0.973,1.379-1.496,3.024-1.496,4.711v136.075h-11.713V111.756C447.267,110.068,446.744,108.423,445.771,107.044z
	 M478.412,485.178c-6.753,6.759-15.74,10.483-25.302,10.483c-9.555-0.005-18.539-3.738-25.296-10.51
	c-6.741-6.756-10.445-15.724-10.428-25.264l-0.013-195.715h71.496l0.005,195.709C488.877,469.438,485.162,478.421,478.412,485.178z"
	/>
<g>
</g>
<g>
</g>
<g>
</g>
<g>
</g>
<g>
</g>
<g>
</g>
<g>
</g>
<g>
</g>
<g>
</g>
<g>
</g>
<g>
</g>
<g>
</g>
<g>
</g>
<g>
</g>
<g>
</g>
</svg>
